# xmcd CD database file
#
# Track frame offsets:
#	150
#	19202
#	41695
#	63458
#	81668
#	102033
#	120563
#	142925
#	164917
#	184941
#	207590
#	227346
#	248678
#
# Disc length: 3524 seconds
#
# Revision: 0
# Processed by: cddbd v1.5.2PL0 Copyright (c) Steve Scherf et al.
# Submitted via: CDex 1.51
#
DISCID=b60dc20d
DTITLE=William Sperandei - when i fall in love
DYEAR=2006
DGENRE=Jazz
TTITLE0=Body and Soul
TTITLE1=All or Nothing at All
TTITLE2=Prelude to a Kiss
TTITLE3=When I Fall in Love
TTITLE4=Tenderly
TTITLE5=Alone Together
TTITLE6=Someone to Watch Over Me
TTITLE7=Dam That Dream
TTITLE8=But Beautiful
TTITLE9=What Are You Doing the Rest of Your Life
TTITLE10=My One and Only Love
TTITLE11=The Nearness of You
TTITLE12=In a Sentimental Mood
EXTD=YEAR: 2006
EXTT0=
EXTT1=
EXTT2=
EXTT3=
EXTT4=
EXTT5=
EXTT6=
EXTT7=
EXTT8=
EXTT9=
EXTT10=
EXTT11=
EXTT12=
PLAYORDER=
